<?xml version="1.0" standalone="no"?>
<!DOCTYPE svg PUBLIC "-//W3C//DTD SVG 20010904//EN"
 "http://www.w3.org/TR/2001/REC-SVG-20010904/DTD/svg10.dtd">
<svg version="1.0" xmlns="http://www.w3.org/2000/svg"
 width="982.000000pt" height="984.000000pt" viewBox="0 0 982.000000 984.000000"
 preserveAspectRatio="xMidYMid meet">

<g transform="translate(0.000000,984.000000) scale(0.100000,-0.100000)"
fill="currentColor" stroke="none">
<path d="M1693 9829 c-886 -85 -1576 -767 -1672 -1651 -70 -637 209 -1278 726
-1671 406 -308 947 -436 1453 -342 80 15 260 62 269 71 4 4 -65 83 -262 300
l-127 141 -68 -10 c-90 -12 -319 -3 -412 17 -474 102 -845 430 -995 879 -48
145 -66 258 -66 422 0 164 18 277 66 422 150 450 522 778 995 880 120 26 410
25 530 -1 432 -94 794 -393 956 -791 80 -196 117 -429 97 -619 l-11 -106 71
-69 c91 -87 303 -277 339 -303 l28 -19 11 28 c22 57 59 216 75 325 23 156 15
448 -16 603 -99 498 -388 928 -808 1202 -342 224 -775 331 -1179 292z"/>
<path d="M7745 9699 c-206 -25 -408 -85 -600 -179 -534 -260 -901 -746 -1011
-1339 -25 -135 -30 -432 -10 -571 18 -117 61 -305 76 -330 9 -14 134 86 345
276 l101 92 -7 68 c-43 384 89 772 358 1054 255 268 585 411 953 411 240 1
412 -40 620 -147 334 -172 579 -481 674 -849 60 -235 49 -516 -29 -750 -149
-448 -542 -791 -1008 -880 -108 -21 -283 -29 -381 -18 l-78 9 -117 -130 c-137
-154 -261 -301 -261 -309 0 -9 129 -46 239 -68 125 -26 430 -37 568 -20 299
37 565 136 810 300 907 610 1095 1860 406 2709 -282 347 -689 583 -1133 657
-116 20 -405 27 -515 14z"/>
<path d="M1815 8306 c-113 -28 -198 -98 -249 -206 -28 -60 -31 -73 -30 -165 1
-175 53 -267 256 -452 73 -66 255 -244 403 -395 803 -814 1255 -1462 1351
-1937 14 -70 16 -123 11 -315 -4 -211 -7 -239 -32 -325 -147 -516 -688 -1237
-1561 -2080 -82 -81 -193 -187 -245 -236 -105 -101 -149 -171 -174 -276 -25
-109 -15 -201 33 -295 52 -102 175 -180 299 -191 87 -7 165 9 253 53 63 32 94
61 329 307 312 326 623 622 901 858 463 393 880 658 1190 757 160 51 199 56
435 55 203 0 227 -2 317 -26 385 -102 828 -384 1435 -914 158 -139 673 -645
903 -889 120 -126 195 -172 319 -194 308 -56 535 222 431 525 -35 102 -68 141
-321 381 -829 787 -1407 1518 -1604 2034 -69 179 -79 242 -80 480 0 305 24
406 160 685 241 494 772 1141 1516 1850 293 279 316 310 345 447 31 144 -3
267 -100 364 -98 98 -229 133 -370 100 -115 -27 -179 -68 -291 -186 -219 -232
-749 -753 -895 -881 -592 -519 -1035 -807 -1403 -913 -118 -34 -290 -50 -462
-43 -260 11 -476 87 -796 278 -453 270 -1049 782 -1651 1416 -220 233 -245
255 -311 288 -110 54 -208 67 -312 41z m3416 -2389 c299 -78 544 -268 688
-537 89 -167 126 -336 119 -547 -8 -214 -60 -378 -174 -550 -329 -498 -996
-628 -1496 -294 -86 58 -227 200 -288 290 -176 262 -228 614 -133 916 122 389
462 681 869 745 104 16 307 5 415 -23z"/>
<path d="M4865 5408 c-27 -5 -86 -26 -130 -48 -327 -157 -406 -582 -159 -849
105 -114 237 -171 393 -171 158 0 268 45 377 154 119 119 171 253 161 416 -21
326 -320 559 -642 498z"/>
<path d="M7723 3759 c-88 -10 -248 -43 -327 -67 l-58 -17 99 -120 c55 -66 140
-165 190 -220 82 -92 93 -100 124 -98 348 15 540 -17 769 -132 135 -67 233
-137 346 -250 258 -257 388 -572 387 -940 0 -220 -37 -383 -133 -580 -65 -136
-153 -255 -268 -367 -189 -183 -391 -291 -653 -349 -149 -34 -389 -34 -538 0
-260 57 -464 166 -649 345 -240 232 -371 506 -403 841 -8 86 -8 148 0 220 l10
100 -42 38 c-65 60 -307 268 -355 306 -34 27 -46 31 -52 21 -11 -18 -54 -194
-72 -290 -20 -116 -17 -469 6 -595 146 -803 766 -1403 1567 -1520 135 -19 382
-19 519 0 738 105 1343 643 1530 1360 50 190 63 315 57 530 -4 149 -11 216
-31 310 -52 248 -164 508 -304 705 -81 114 -258 300 -367 385 -379 297 -881
439 -1352 384z"/>
<path d="M1803 3700 c-736 -59 -1372 -559 -1606 -1260 -252 -755 13 -1601 648
-2070 857 -633 2054 -428 2646 454 182 271 283 565 308 900 16 208 -11 458
-70 659 -18 62 -22 67 -37 55 -56 -43 -164 -136 -282 -242 l-136 -121 0 -200
c0 -218 -9 -280 -64 -447 -153 -459 -562 -804 -1048 -884 -143 -24 -382 -14
-519 20 -245 61 -434 167 -616 345 -187 183 -300 380 -365 639 -24 97 -26 125
-27 297 0 145 4 209 18 272 88 410 345 743 712 923 216 107 403 146 652 137
l153 -6 53 57 c68 72 185 205 266 301 46 57 58 77 48 83 -8 4 -57 18 -109 32
-190 49 -433 71 -625 56z"/>
</g>
</svg>
